<svg width="72" height="98" viewBox="0 0 72 98" fill="none" xmlns="http://www.w3.org/2000/svg">
<path d="M61.8502 38.4C55.2802 31.38 46.8602 27.67 36.5802 27.26C36.4002 27.17 36.2202 27.12 36.0402 27.12H35.6302C30.3802 27.3 25.5302 28.43 21.0902 30.52C19.6902 31.15 18.3302 31.88 17.0102 32.69V8.16C17.0102 5.94 16.2202 4.04 14.6302 2.45C13.0002 0.819997 11.0702 0 8.86017 0C6.64017 0 4.72017 0.819997 3.08017 2.45C1.49017 4.04 0.700195 5.94 0.700195 8.16V89.62C0.700195 91.89 1.49017 93.81 3.08017 95.4C4.71017 96.99 6.64017 97.78 8.86017 97.78C12.8902 97.78 15.4902 95.83 16.6702 91.94C18.4402 93.16 20.2902 94.18 22.2402 95C26.5902 96.86 31.0702 97.79 35.6902 97.79C38.0002 97.79 40.3602 97.54 42.7602 97.04C49.8302 95.68 55.9002 92.47 60.9702 87.39C67.5802 80.78 70.9802 72.69 71.1602 63.13V62.38C71.1602 53.14 68.0502 45.15 61.8502 38.4ZM49.7302 82.28C49.6702 81.75 49.6102 81.25 49.5702 80.76C49.3302 78.3 49.0802 75.85 48.8502 73.39C48.6702 71.55 48.5002 69.7 48.3402 67.85C48.1802 66.04 48.0202 64.22 47.8702 62.41C47.7802 61.34 47.6902 60.27 47.6002 59.2C47.5702 58.81 47.5002 58.76 47.1102 58.76C45.6002 58.76 36.2502 58.77 34.5702 58.77C33.4602 58.77 26.4102 58.77 24.6902 58.77C24.2802 58.77 23.8702 58.77 23.4602 58.76C23.2402 58.75 23.1402 58.84 23.1202 59.07C22.9502 61.19 22.7702 63.3 22.5902 65.42C22.4702 66.77 22.3302 68.11 22.2102 69.46C22.1502 70.18 22.1102 70.9 22.0402 71.62C21.9302 72.82 21.8102 74.02 21.6902 75.22C21.4702 77.46 21.2402 79.71 21.0202 81.95C21.0102 82.06 20.9802 82.17 20.9602 82.33C18.1002 80.13 15.8602 77.47 14.2502 74.3C11.7702 69.43 11.0402 64.28 12.0802 58.93C14.1902 48.05 23.6002 40.13 34.5802 39.79C46.0402 39.44 55.8802 47.23 58.4202 58.01C60.7802 68.13 56.2502 77.5 49.7302 82.28Z" fill="#DF2E44"/>
</svg>
