<svg width="166" height="57" viewBox="0 0 166 57" fill="none" xmlns="http://www.w3.org/2000/svg">
<path d="M40.2413 7.38633C39.239 7.38633 38.3721 7.02965 37.6317 6.31178C36.9138 5.57584 36.5571 4.70897 36.5571 3.70213C36.5571 2.69982 36.9138 1.83295 37.6317 1.09702C38.3676 0.383658 39.239 0.0224609 40.2413 0.0224609C41.2436 0.0224609 42.1105 0.379143 42.8464 1.09702C43.5598 1.83295 43.921 2.70433 43.921 3.70213C43.921 4.70445 43.5643 5.57133 42.8464 6.31178C42.1105 7.02965 41.2436 7.38633 40.2413 7.38633ZM43.921 40.4854C43.921 41.4877 43.5643 42.3455 42.8464 43.0634C42.1286 43.7993 41.2617 44.1695 40.2413 44.1695C39.239 44.1695 38.3812 43.7993 37.6633 43.0634C36.9454 42.35 36.5887 41.4877 36.5887 40.4854V15.915C36.5887 14.9127 36.9454 14.0549 37.6633 13.337C38.3767 12.6011 39.239 12.2309 40.2413 12.2309C41.2617 12.2309 42.1331 12.6011 42.8464 13.337C43.5598 14.0549 43.921 14.9127 43.921 15.915V40.4854Z" fill="#2B3445"/>
<path d="M77.2639 17.0484C80.3702 20.1999 81.9278 23.9292 81.9278 28.2455C81.9278 31.9658 80.7088 35.3204 78.2753 38.3093C75.8823 41.2756 72.8573 43.1267 69.1957 43.8627C68.0896 44.0884 66.9969 44.2013 65.9134 44.2013C62.947 44.2013 60.1162 43.3434 57.4162 41.6232V52.7571C57.4162 53.8 57.0505 54.6669 56.3101 55.3667C55.5922 56.0801 54.7344 56.4413 53.732 56.4413C52.7072 56.4413 51.8403 56.0846 51.1224 55.3667C50.4045 54.6714 50.0479 53.8 50.0479 52.7571V15.9784C50.0479 14.9761 50.4045 14.1182 51.1224 13.4003C51.8358 12.6644 52.7072 12.2942 53.732 12.2942C55.5516 12.2942 56.7164 13.1746 57.2311 14.9309C58.0077 14.3982 58.8249 13.9512 59.6873 13.5809C61.7099 12.7637 63.8184 12.3348 66.0082 12.2942H66.0985C70.4147 12.3529 74.1351 13.9421 77.2639 17.0484ZM59.9627 22.2045C58.265 23.9021 57.4162 25.9158 57.4162 28.2455C57.4162 30.2501 58.0709 32.0471 59.3802 33.6453C60.667 35.2797 62.2924 36.2821 64.2564 36.6523C64.8704 36.7742 65.4619 36.8374 66.0353 36.8374C67.6697 36.8374 69.2273 36.3588 70.6992 35.3971C72.6812 34.0878 73.9093 32.2773 74.3789 29.9657C74.5008 29.3516 74.564 28.7602 74.564 28.1868C74.564 26.2634 73.9003 24.4936 72.5684 22.8817C70.8482 20.7778 68.6629 19.7032 66.0036 19.6626C63.6785 19.6581 61.6603 20.5069 59.9627 22.2045Z" fill="#2B3445"/>
<path d="M101.039 12.2625C105.518 12.3437 109.27 13.9601 112.299 17.107C115.306 20.132 116.81 23.8342 116.81 28.2137V28.3356C116.787 32.7106 115.257 36.4219 112.209 39.4695C109.92 41.7586 107.179 43.2124 103.987 43.8264C102.904 44.0521 101.838 44.165 100.795 44.165C98.7094 44.165 96.6867 43.7451 94.7227 42.9054C91.7971 41.6773 89.4583 39.7133 87.6975 37.0179C85.896 34.3179 84.9976 31.3832 84.9976 28.2137C84.9976 23.8975 86.5507 20.1681 89.6615 17.0167C92.7678 13.9104 96.4926 12.3211 100.827 12.2625H101.039V12.2625ZM94.9033 22.1727C93.2057 23.8704 92.3569 25.884 92.3569 28.2137C92.3569 30.2184 92.989 32.0198 94.2577 33.6136C95.5851 35.2074 97.233 36.2097 99.197 36.6206C99.8111 36.7425 100.403 36.8057 100.976 36.8057C102.592 36.8057 104.136 36.3271 105.608 35.3654C107.613 34.0561 108.85 32.2456 109.32 29.9339C109.441 29.3199 109.505 28.7284 109.505 28.155C109.505 26.2317 108.841 24.4618 107.509 22.85C105.793 20.7415 103.604 19.6715 100.944 19.6308C98.574 19.6669 96.5603 20.5158 94.9033 22.1727Z" fill="#2B3445"/>
<path d="M121.406 15.942C121.406 14.9397 121.776 14.0818 122.512 13.364C123.226 12.628 124.088 12.2578 125.09 12.2578C126.932 12.2578 128.106 13.1382 128.616 14.8945C131.253 13.1969 134.17 12.3391 137.357 12.3165C140.567 12.3165 143.493 13.1879 146.13 14.9261C149.525 17.1565 151.773 20.4073 152.88 24.6829C153.146 25.6852 153.277 26.8591 153.277 28.2091V40.4807C153.277 41.5056 152.92 42.3725 152.202 43.0903C151.507 43.8082 150.64 44.1649 149.593 44.1649C148.59 44.1649 147.733 43.8082 147.015 43.0903C146.279 42.377 145.909 41.5056 145.909 40.4807V28.2091C145.909 26.4934 145.43 24.9087 144.468 23.4549C143.489 21.983 142.22 20.931 140.667 20.2944C139.583 19.8429 138.5 19.6172 137.416 19.6172C136.391 19.6172 135.362 19.8203 134.319 20.2312C132.192 21.0303 130.639 22.439 129.655 24.4662C129.104 25.5724 128.806 26.8185 128.765 28.2091V40.4807C128.765 41.5056 128.409 42.3725 127.691 43.0903C126.973 43.8082 126.106 44.1649 125.081 44.1649C124.079 44.1649 123.221 43.8082 122.503 43.0903C121.767 42.377 121.397 41.5056 121.397 40.4807V15.942H121.406Z" fill="#2B3445"/>
<path d="M162.176 7.38633C161.174 7.38633 160.307 7.02965 159.571 6.31178C158.853 5.57584 158.497 4.70897 158.497 3.70213C158.497 2.69982 158.853 1.83295 159.571 1.09702C160.307 0.383658 161.174 0.0224609 162.176 0.0224609C163.179 0.0224609 164.045 0.379143 164.786 1.09702C165.499 1.83295 165.86 2.70433 165.86 3.70213C165.86 4.70445 165.504 5.57133 164.786 6.31178C164.05 7.02965 163.179 7.38633 162.176 7.38633ZM165.856 40.4854C165.856 41.4877 165.499 42.3455 164.781 43.0634C164.063 43.7993 163.197 44.1695 162.172 44.1695C161.169 44.1695 160.312 43.7993 159.594 43.0634C158.876 42.35 158.519 41.4877 158.519 40.4854V15.915C158.519 14.9127 158.876 14.0549 159.594 13.337C160.307 12.6011 161.169 12.2309 162.172 12.2309C163.192 12.2309 164.063 12.6011 164.781 13.337C165.495 14.0549 165.856 14.9127 165.856 15.915V40.4854Z" fill="#2B3445"/>
<path d="M28.3091 17.3374C25.3427 14.1679 21.5411 12.4928 16.8998 12.3077C16.8185 12.2671 16.7373 12.2445 16.656 12.2445H16.4709C14.1005 12.3258 11.9108 12.836 9.90615 13.7796C9.27406 14.064 8.66003 14.3936 8.06406 14.7593V3.68419C8.06406 2.68188 7.70738 1.82403 6.9895 1.10616C6.25357 0.370224 5.38218 0 4.38437 0C3.38206 0 2.51519 0.370224 1.77474 1.10616C1.05686 1.82403 0.700195 2.68188 0.700195 3.68419V40.4629C0.700195 41.4878 1.05686 42.3547 1.77474 43.0725C2.51067 43.7904 3.38206 44.1471 4.38437 44.1471C6.2039 44.1471 7.37779 43.2667 7.91056 41.5104C8.7097 42.0612 9.54495 42.5217 10.4254 42.8919C12.3894 43.7317 14.4121 44.1516 16.498 44.1516C17.5409 44.1516 18.6064 44.0387 19.69 43.813C22.8821 43.1989 25.6227 41.7497 27.9117 39.4561C30.8961 36.4717 32.4312 32.8191 32.5125 28.5028V28.1642C32.5125 23.9924 31.1083 20.385 28.3091 17.3374ZM22.8369 37.1489C22.8099 36.9096 22.7828 36.6839 22.7647 36.4627C22.6563 35.352 22.5435 34.2458 22.4396 33.1351C22.3584 32.3044 22.2816 31.4691 22.2094 30.6339C22.1371 29.8167 22.0649 28.995 21.9972 28.1778C21.9565 27.6947 21.9159 27.2115 21.8753 26.7284C21.8617 26.5524 21.8301 26.5298 21.654 26.5298C20.9723 26.5298 16.7508 26.5343 15.9923 26.5343C15.4911 26.5343 12.3081 26.5343 11.5315 26.5343C11.3464 26.5343 11.1613 26.5343 10.9762 26.5298C10.8769 26.5253 10.8317 26.5659 10.8227 26.6697C10.7459 27.6269 10.6647 28.5796 10.5834 29.5367C10.5292 30.1463 10.466 30.7513 10.4118 31.3608C10.3847 31.6859 10.3667 32.0109 10.3351 32.336C10.2854 32.8778 10.2312 33.4196 10.1771 33.9614C10.0777 34.9727 9.97387 35.9886 9.87454 36.9999C9.87003 37.0496 9.85649 37.0993 9.84746 37.1715C8.55618 36.1782 7.54484 34.9772 6.81793 33.546C5.69823 31.3472 5.36863 29.022 5.83819 26.6065C6.79084 21.6943 11.0394 18.1185 15.9968 17.965C21.1709 17.8069 25.6136 21.3241 26.7604 26.1912C27.826 30.7603 25.7807 34.9908 22.8369 37.1489Z" fill="#DF2E44"/>
<path d="M19.2021 24.7961C19.1976 24.3265 19.0983 23.875 18.8815 23.4596C18.7009 23.1075 18.4481 22.8095 18.1501 22.5521C17.518 22.0013 16.6195 21.753 15.7888 21.8749C15.4953 21.92 15.2109 22.0104 14.9535 22.1503C14.5607 22.367 14.2718 22.6695 13.9964 23.0217C13.8745 23.1752 13.7661 23.3468 13.6803 23.5228C13.5042 23.884 13.4139 24.2814 13.4004 24.6832C13.4004 24.7193 13.4004 24.7509 13.4004 24.787C13.4004 25.5185 13.4094 26.2499 13.4139 26.9813C13.4139 27.0897 13.4004 27.198 13.4094 27.3064C13.4185 27.3967 13.4771 27.4554 13.572 27.4554C13.6713 27.4599 13.7345 27.4012 13.748 27.3019C13.7526 27.2657 13.7526 27.2296 13.7526 27.1935C13.7526 26.3989 13.7435 25.6042 13.7616 24.8096C13.7797 23.9473 14.1679 23.1842 14.8768 22.6876C15.1432 22.5025 15.4366 22.358 15.7527 22.2948C15.9288 22.2587 16.0868 22.2316 16.2674 22.2361C17.0756 22.2542 17.8521 22.6379 18.3397 23.2836C18.4978 23.4958 18.6242 23.7305 18.7054 23.9834C18.7641 24.1775 18.8003 24.3807 18.8183 24.5839C18.8635 25.1663 18.8499 25.7532 18.8544 26.3402C18.859 26.6246 18.8409 26.9091 18.8319 27.198C18.8273 27.3515 18.8951 27.4554 19.008 27.4599C19.1253 27.4644 19.2021 27.3741 19.1976 27.2116C19.1976 27.0987 19.175 26.9858 19.175 26.8729C19.1795 26.5659 19.1976 26.2589 19.2021 25.9474C19.2066 25.5591 19.2021 25.1798 19.2021 24.7961Z" fill="#041533"/>
</svg>
